<svg xmlns="http://www.w3.org/2000/svg" xmlns:xlink="http://www.w3.org/1999/xlink" width="32" height="32" version="1.1" viewBox="0 0 32 32"><title>1F396E79-704A-4B98-A5D9-46E8C401B934</title><desc>Created with sketchtool.</desc><g id="Desktop" fill="none" fill-rule="evenodd" stroke="none" stroke-width="1"><g id="Home" stroke="#51B5B1" stroke-width="2" transform="translate(-1216.000000, -24.000000)"><g id="Header"><g id="sign-in"><g transform="translate(1212.000000, 25.000000)"><g id="avatar" transform="translate(5.000000, 0.000000)"><path id="Stroke-1" d="M30,15 C30,23.2843333 23.2843333,30 15,30 C6.71566667,30 0,23.2843333 0,15 C0,6.71566667 6.71566667,0 15,0 C23.2843333,0 30,6.71566667 30,15 Z"/><path id="Stroke-3" d="M20.5,12.5 C20.5,15.5376667 18.0376667,18 15,18 C11.9623333,18 9.5,15.5376667 9.5,12.5 C9.5,9.46233333 11.9623333,7 15,7 C18.0376667,7 20.5,9.46233333 20.5,12.5 Z"/><path id="Stroke-5" d="M25.6249167,25.1656167 C23.96425,20.9687833 19.8709167,17.99995 15.08325,17.99995 C10.2525833,17.99995 6.13025,21.02345 4.49925,25.28045"/></g></g></g></g></g></g></svg>